# xmcd CD database file
#
# Track frame offsets:
#	150
#	15917
#	29001
#	44514
#	60417
#	76591
#	89885
#	106859
#	121492
#	138376
#	148760
#
# Disc length: 2221 seconds
#
# Revision: 0
# Processed by: cddbd v1.5.1PL0 Copyright (c) Steve Scherf et al.
# Submitted via: Feurio! 1.67 - http://www.feurio.com
#
DISCID=9008ab0b
DTITLE=Restless Heart - Still Restless
DYEAR=2004
DGENRE=Country
TTITLE0=Feel My Way To You
TTITLE1=Down The Road
TTITLE2=Same Boat Now
TTITLE3=Looking Back
TTITLE4=And More
TTITLE5=Makin' Hay
TTITLE6=Every Fire
TTITLE7=Yesterday's News
TTITLE8=Miracle
TTITLE9=The Night Before
TTITLE10=What We Know Now
EXTD=
EXTT0=
EXTT1=
EXTT2=
EXTT3=
EXTT4=
EXTT5=
EXTT6=
EXTT7=
EXTT8=
EXTT9=
EXTT10=
PLAYORDER=
